<svg width="24" height="24" viewBox="0 0 24 24" fill="none" xmlns="http://www.w3.org/2000/svg">
<path fill-rule="evenodd" clip-rule="evenodd" d="M12 24C18.6274 24 24 18.6274 24 12C24 5.37258 18.6274 0 12 0C5.37258 0 0 5.37258 0 12C0 18.6274 5.37258 24 12 24ZM7.00913 18.84C5.92085 18.0755 5.03238 17.062 4.41831 15.8844C3.80423 14.7068 3.48246 13.3996 3.48 12.0724C3.48 7.45952 7.29449 3.72 12 3.72C16.7055 3.72 20.52 7.45952 20.52 12.0724C20.5176 13.3968 20.1972 14.7014 19.5856 15.8771C18.974 17.0528 18.0889 18.0655 17.0044 18.8304L15.1235 16.2732C15.8125 15.798 16.3759 15.1637 16.7656 14.4243C17.1552 13.6849 17.3596 12.8625 17.3612 12.0273C17.3612 9.15054 14.9828 6.81891 12.0488 6.81891C9.11483 6.81891 6.7363 9.15076 6.7363 12.0273C6.73776 12.8521 6.93703 13.6647 7.31749 14.3971C7.69795 15.1296 8.24858 15.7608 8.92345 16.238L7.00913 18.84ZM9.92976 12.0177C9.92213 11.594 10.0412 11.1776 10.2718 10.8215C10.5024 10.4655 10.8341 10.1859 11.2246 10.0185C11.6152 9.85104 12.0469 9.80328 12.4647 9.88129C12.8826 9.95931 13.2677 10.1596 13.571 10.4565C13.8743 10.7535 14.082 11.1338 14.1678 11.5489C14.2535 11.964 14.2134 12.3951 14.0524 12.7874C13.8915 13.1797 13.6171 13.5153 13.2642 13.7516C12.9112 13.9878 12.4957 14.114 12.0706 14.114C11.5079 14.119 10.9662 13.9009 10.5647 13.5078C10.1633 13.1147 9.93485 12.5787 9.92976 12.0177Z" fill="black"/>
</svg>
