<svg width="24" height="24" viewBox="0 0 24 24" fill="none" xmlns="http://www.w3.org/2000/svg">
<path d="M6.33708 12.3034H3.79268C4.07043 8.01238 7.63881 4.61798 12 4.61798C16.3612 4.61798 19.9296 8.01238 20.2073 12.3034H17.6629C17.1417 12.3034 16.7191 12.7259 16.7191 13.2472V19.3146C16.7191 19.8359 17.1417 20.2584 17.6629 20.2584H20.764C21.2853 20.2584 21.7079 19.8359 21.7079 19.3146V12.3034H21.6996C21.4875 7.12944 17.226 3 12 3C6.77399 3 2.51246 7.12944 2.30041 12.3034H2.29213V19.3146C2.29213 19.8359 2.7147 20.2584 3.23595 20.2584H6.33708C6.85833 20.2584 7.2809 19.8359 7.2809 19.3146V13.2472C7.2809 12.7259 6.85833 12.3034 6.33708 12.3034Z" fill="black"/>
<path d="M1.21348 14.3258L0 15V17.5618L1.21348 18.236V14.3258Z" fill="black"/>
<path d="M22.7865 14.3258L24 15V17.5618L22.7865 18.236V14.3258Z" fill="black"/>
</svg>
