<svg width="24" height="24" viewBox="0 0 24 24" fill="none" xmlns="http://www.w3.org/2000/svg">
<path d="M0.909091 11.1519C2.17627 10.3092 3.69746 9.81818 5.33333 9.81818C9.75161 9.81818 13.3333 13.3999 13.3333 17.8182C13.3333 19.5866 12.7595 21.2211 11.7879 22.5455H16.1327C16.749 21.1349 17.0909 19.5771 17.0909 17.9394C17.0909 11.5798 11.9354 6.42424 5.57576 6.42424C3.91457 6.42424 2.33554 6.776 0.909091 7.40909V11.1519Z" fill="black"/>
<path d="M19.8248 22.5455H23.473C23.8173 21.1476 24 19.686 24 18.1818C24 8.14027 15.8597 0 5.81818 0C4.11715 0 2.47067 0.233591 0.909091 0.670455V4.35687C2.44394 3.81183 4.09641 3.51515 5.81818 3.51515C13.9184 3.51515 20.4848 10.0816 20.4848 18.1818C20.4848 19.7014 20.2537 21.167 19.8248 22.5455Z" fill="black"/>
<path d="M3.57576 20.9274L8.12121 18.303L3.57576 15.6787V20.9274Z" fill="black"/>
<path fill-rule="evenodd" clip-rule="evenodd" d="M5.21212 23.5152C8.09069 23.5152 10.4242 21.1816 10.4242 18.303C10.4242 15.4245 8.09069 13.0909 5.21212 13.0909C2.33355 13.0909 0 15.4245 0 18.303C0 21.1816 2.33355 23.5152 5.21212 23.5152ZM5.21212 22.5455C7.55515 22.5455 9.45455 20.6461 9.45455 18.303C9.45455 15.96 7.55515 14.0606 5.21212 14.0606C2.8691 14.0606 0.969697 15.96 0.969697 18.303C0.969697 20.6461 2.8691 22.5455 5.21212 22.5455Z" fill="black"/>
</svg>
