<svg width="24" height="24" viewBox="0 0 24 24" fill="none" xmlns="http://www.w3.org/2000/svg">
<path fill-rule="evenodd" clip-rule="evenodd" d="M2.00008 16.9887L2.00513 6.9798C2.00044 6.21259 2.31185 5.66738 2.94512 5.2759L11.003 0.314939C11.6764 -0.102786 12.3021 -0.106161 12.9794 0.311939L21.0719 5.28902C21.6918 5.66887 21.9986 6.22647 21.9993 6.96705L22 17.0138C22 17.7525 21.7041 18.315 21.082 18.696L12.9631 23.6944C12.3136 24.0942 11.6987 24.1069 11.0492 23.7019L2.95053 18.7249C2.30319 18.3296 1.99431 17.7739 2.00008 16.9887ZM12.5 8.59328C12.5131 8.03164 12.812 7.683 13.3055 7.72852C13.7296 7.76409 13.9947 8.10355 14 8.63105V14.1774C13.9955 14.74 13.6978 15.1004 13.2388 15.1081C12.7956 15.1163 12.5192 14.7659 12.5 14.2511V12.8297C12.4959 12.4556 12.2705 12.2499 11.9934 12.2449C11.7179 12.2399 11.5065 12.4446 11.5 12.8165V14.0545C11.491 14.6347 11.207 15.0062 10.7344 15.0003C10.2769 14.9944 10.0098 14.6362 10 14.08V12.4715C10 12.2131 9.92406 12.0253 9.85573 11.8996C9.78287 11.767 9.66878 11.7047 9.50701 11.7023C9.18164 11.6978 9.00082 11.9463 9 12.5025V16.0799C9.00327 16.4585 8.91274 16.7353 8.61478 16.9028C8.08988 17.1974 7.47945 16.7892 7.47124 16.1281L7.46306 13.4228C7.45894 13.1041 7.33919 12.7971 7 12.8161C6.65139 12.7971 6.49044 13.1694 6.5 13.4002C6.5 14 6.21487 14.317 5.77437 14.318C5.38313 14.3194 5.01186 13.9747 5.00082 13.5197L5 10.7684C5.00982 10.3242 5.38227 9.97827 5.77518 9.97372C6.1307 9.96871 6.41186 10.2576 6.5 10.6544C6.51669 10.7282 6.52524 10.8033 6.53375 10.8781C6.55092 11.0291 6.56795 11.1787 6.65139 11.3138C6.73269 11.4426 6.86289 11.507 7.03331 11.5012C7.29157 11.4925 7.45978 11.3191 7.46633 11.0023L7.47288 9.25915C7.48311 8.62286 7.99676 8.22962 8.52882 8.43717C8.84444 8.55599 8.98927 8.81349 9 9.19634V9.87905C9.01892 10.2426 9.23782 10.4325 9.52338 10.4216C9.80005 10.4107 9.99591 10.2377 10 9.87632V7.90465C10.018 7.15823 10.6243 6.76589 11.1842 7.14912C11.4604 7.3383 11.5021 7.6307 11.5 7.9752V10.4056C11.4988 10.6764 11.6097 10.8865 11.8739 10.9509C12.1956 11.0296 12.4935 10.8235 12.5 10.4275V8.59328ZM16.5 13.9557C16.4972 14.1682 16.4521 14.3516 16.3674 14.497C16.2394 14.719 16.0259 14.8541 15.7555 14.8715C15.3241 14.8988 15.0115 14.5629 15 14.0513V10.7538C15.0111 10.2262 15.286 9.92223 15.7539 9.94277C16.2004 9.96188 16.4943 10.3101 16.5 10.8394V13.9557ZM19 13.319C18.9583 13.7983 18.6992 14.0691 18.25 14.0691C17.8317 14.0691 17.5206 13.7147 17.5 13.2416C17.5 13.1499 17.4983 13.0583 17.4967 12.9668C17.4934 12.784 17.4901 12.6012 17.5 12.4178C17.5246 11.9545 17.8419 11.5895 18.25 11.5895C18.6562 11.5895 19 11.8633 19 12.3605V13.319Z" fill="black"/>
</svg>
