<svg width="24" height="24" viewBox="0 0 24 24" fill="none" xmlns="http://www.w3.org/2000/svg">
<path d="M21.2346 9.11732C21.2346 12.4447 19.4522 15.3557 16.7901 16.9478C16.8472 16.4677 16.8771 16.0577 16.8771 15.7448C16.8771 15.4826 16.8561 15.2252 16.8157 14.9744C18.529 13.5982 19.6257 11.4858 19.6257 9.11732C19.6257 4.97056 16.2641 1.60894 12.1173 1.60894C7.97055 1.60894 4.60894 4.97056 4.60894 9.11732C4.60894 11.4312 5.65564 13.5007 7.30139 14.878C7.2502 15.1592 7.22346 15.4489 7.22346 15.7448C7.22346 16.0384 7.24978 16.4175 7.30017 16.8596C4.71818 15.2497 3 12.3842 3 9.11732C3 4.08196 7.08196 0 12.1173 0C17.1527 0 21.2346 4.08196 21.2346 9.11732Z" fill="black"/>
<path d="M17.9497 9.11732C17.9497 10.7489 17.2797 12.2241 16.1999 13.2826C15.8985 12.7778 15.5073 12.3326 15.0483 11.9691C15.7652 11.2324 16.2067 10.2264 16.2067 9.11732C16.2067 6.85881 14.3758 5.02793 12.1173 5.02793C9.85881 5.02793 8.02793 6.85881 8.02793 9.11732C8.02793 10.1967 8.44612 11.1784 9.12931 11.9093C8.66274 12.2638 8.26279 12.7011 7.95151 13.1994C6.92057 12.1474 6.28492 10.7066 6.28492 9.11732C6.28492 5.89617 8.89617 3.28492 12.1173 3.28492C15.3385 3.28492 17.9497 5.89617 17.9497 9.11732Z" fill="black"/>
<path d="M14.4637 9.11732C14.4637 10.4132 13.4132 11.4637 12.1173 11.4637C10.8215 11.4637 9.77095 10.4132 9.77095 9.11732C9.77095 7.82146 10.8215 6.77095 12.1173 6.77095C13.4132 6.77095 14.4637 7.82146 14.4637 9.11732Z" fill="black"/>
<path d="M15.3352 15.7542C15.3352 17.5314 13.8945 24 12.1173 24C10.3401 24 8.89944 17.5314 8.89944 15.7542C8.89944 13.977 10.3401 12.5363 12.1173 12.5363C13.8945 12.5363 15.3352 13.977 15.3352 15.7542Z" fill="black"/>
</svg>
