<svg width="24" height="24" viewBox="0 0 24 24" fill="none" xmlns="http://www.w3.org/2000/svg">
<g clip-path="url(#clip0)">
<path d="M21.5006 12.4017C21.3847 11.8747 21.1277 11.4329 20.7305 11.0758C20.333 10.7188 19.8755 10.5089 19.3575 10.4464C17.7147 10.2679 15.2371 10.1786 11.9244 10.1786C8.61175 10.1786 6.13856 10.2679 4.50457 10.4464C3.97793 10.5089 3.51812 10.7188 3.12512 11.0758C2.73221 11.433 2.47327 11.8749 2.34821 12.4017C2.1161 13.4376 2 15 2 17.0893C2 19.2143 2.1161 20.7769 2.34821 21.777C2.46445 22.3035 2.72118 22.7458 3.1185 23.1027C3.51582 23.4598 3.97342 23.6652 4.49121 23.7188C6.13425 23.9063 8.61204 24 11.9245 24C15.2367 24 17.7149 23.9063 19.3574 23.7188C19.8754 23.6652 20.3307 23.4598 20.7237 23.1027C21.1166 22.7458 21.3756 22.3035 21.5005 21.777C21.7326 20.7411 21.8488 19.1786 21.8488 17.0893C21.8488 14.9644 21.7325 13.4017 21.5006 12.4017ZM7.66569 13.7546H6.23266V21.375H4.89345V13.7546H3.48711V12.4957H7.66574L7.66569 13.7546ZM11.2817 21.375H10.0897V20.6516C9.60759 21.1965 9.15205 21.4687 8.72349 21.4687C8.31285 21.4687 8.05386 21.3034 7.94686 20.9732C7.87551 20.7589 7.83963 20.4328 7.83963 19.9954V14.7589H9.03159V19.6339C9.03159 19.9195 9.03609 20.0758 9.0451 20.1026C9.07189 20.2901 9.16556 20.3839 9.32637 20.3839C9.56739 20.3839 9.82201 20.1964 10.0898 19.8214V14.7589H11.2817L11.2817 21.375ZM15.8353 19.3928C15.8353 20.0445 15.7952 20.4912 15.7152 20.7324C15.563 21.2232 15.2463 21.4687 14.7642 21.4687C14.3356 21.4687 13.9205 21.2232 13.5185 20.7324V21.3751H12.3267V12.4957H13.5185V15.402C13.9026 14.9201 14.3176 14.679 14.7642 14.679C15.2463 14.679 15.563 14.929 15.7152 15.4289C15.7951 15.6611 15.8353 16.103 15.8353 16.7548V19.3928ZM20.3621 18.2947H17.9649V19.4599C17.9649 20.076 18.1701 20.3839 18.5808 20.3839C18.8754 20.3839 19.0541 20.2233 19.1165 19.9016C19.1342 19.8124 19.1433 19.5402 19.1433 19.0849H20.3621V19.2589C20.3621 19.6965 20.3529 19.9553 20.3352 20.0358C20.3086 20.2766 20.2152 20.5177 20.054 20.7589C19.7326 21.2321 19.2501 21.4687 18.6073 21.4687C17.9915 21.4687 17.5093 21.241 17.161 20.7858C16.9022 20.4554 16.7728 19.9376 16.7728 19.2322V16.9151C16.7728 16.2098 16.8976 15.6919 17.1474 15.3615C17.4958 14.9062 17.9735 14.6786 18.5808 14.6786C19.1792 14.6786 19.6527 14.9062 20.0005 15.3615C20.2419 15.6919 20.3621 16.2098 20.3621 16.9151V18.2947Z" fill="black"/>
<path d="M14.1208 15.7635C13.9154 15.7635 13.7147 15.8621 13.5182 16.0583V20.0894C13.7146 20.2857 13.9154 20.3839 14.1208 20.3839C14.4689 20.3839 14.6434 20.085 14.6434 19.4865V16.6609C14.6434 16.0626 14.4692 15.7635 14.1208 15.7635Z" fill="black"/>
<path d="M18.5675 15.7635C18.1658 15.7635 17.9649 16.0673 17.9649 16.6741V17.2902H19.1701V16.6741C19.1701 16.067 18.9692 15.7635 18.5675 15.7635Z" fill="black"/>
<path d="M6.88927 5.34375V8.97335H8.22848V5.34375L9.84877 0H8.48273L7.57222 3.52236L6.62123 0H5.20166C5.45169 0.750078 5.74187 1.58483 6.07225 2.50453C6.49195 3.7366 6.76411 4.68318 6.88927 5.34375Z" fill="black"/>
<path d="M11.6434 9.0671C12.2595 9.0671 12.7326 8.8394 13.0629 8.38406C13.3131 8.05368 13.4379 7.52684 13.4379 6.80373V4.45987C13.4379 3.74568 13.3127 3.2232 13.0629 2.89282C12.7326 2.43747 12.2595 2.20978 11.6434 2.20978C11.045 2.20978 10.5762 2.43747 10.237 2.89282C9.98713 3.2232 9.86212 3.74568 9.86212 4.45987V6.80369C9.86212 7.51788 9.98699 8.04476 10.237 8.38401C10.5763 8.8394 11.0449 9.0671 11.6434 9.0671ZM11.0674 4.21876C11.0674 3.60265 11.2594 3.2946 11.6434 3.2946C12.0274 3.2946 12.2192 3.60265 12.2192 4.21876V7.0312C12.2192 7.6564 12.0274 7.96868 11.6434 7.96868C11.2594 7.96868 11.0674 7.65621 11.0674 7.0312V4.21876Z" fill="black"/>
<path d="M15.3261 9.06708C15.7728 9.06708 16.2327 8.79027 16.7058 8.23656V8.97317H17.9246V2.29016H16.7058V7.3928C16.4379 7.7768 16.1836 7.96861 15.9422 7.96861C15.7813 7.96861 15.6876 7.87043 15.6609 7.67402C15.652 7.65615 15.6475 7.49975 15.6475 7.20521V2.29016H14.4287V7.56707C14.4287 8.02232 14.4647 8.35702 14.5359 8.57144C14.6521 8.90182 14.9154 9.06708 15.3261 9.06708Z" fill="black"/>
</g>
<defs>
<clipPath id="clip0">
<rect width="24" height="24" fill="white"/>
</clipPath>
</defs>
</svg>
