<?xml version="1.0" encoding="UTF-8" standalone="no"?>
<!DOCTYPE svg PUBLIC "-//W3C//DTD SVG 1.1//EN" "http://www.w3.org/Graphics/SVG/1.1/DTD/svg11.dtd">
<svg width="24" height="24" viewBox="0 0 24 24" version="1.1" xmlns="http://www.w3.org/2000/svg" xmlns:xlink="http://www.w3.org/1999/xlink" xml:space="preserve" xmlns:serif="http://www.serif.com/" style="fill-rule:evenodd;clip-rule:evenodd;stroke-linejoin:round;stroke-miterlimit:2;">
    <g transform="matrix(0.326797,0,0,0.326797,-3.55271e-15,-3.55271e-15)">
        <rect x="0" y="0" width="73.44" height="73.44" style="fill-rule:nonzero;"/>
    </g>
    <g transform="matrix(0.326797,0,0,0.326797,-3.55271e-15,1)">
        <path d="M64.328,63.276C63.013,62.984 61.843,62.219 61.154,61.2C60.712,60.547 60.337,59.44 60.333,58.779C60.326,57.392 58.912,56.22 57.117,56.113C56.679,56.086 54.785,56.046 52.91,56.024C49.187,55.979 48.975,55.949 47.628,55.27C46.711,54.807 45.403,53.476 44.953,52.547C44.409,51.424 44.241,50.59 44.301,49.308C44.347,48.314 44.511,47.609 45.91,42.425C47.725,35.702 47.83,35.428 49.088,34.176C50.409,32.861 51.733,32.307 53.557,32.304L54.534,32.303L54.475,30.02C54.413,27.617 54.26,26.464 53.781,24.782C52.281,19.516 47.971,15.019 42.749,13.269C40.939,12.662 39.879,12.484 37.726,12.422C36.053,12.374 35.541,12.4 34.426,12.59C28.133,13.663 22.997,18.006 20.908,24.022C20.251,25.913 20.051,27.192 19.986,29.91L19.929,32.303L20.526,32.303C22.534,32.303 24.832,33.766 25.821,35.673C26.365,36.724 29.412,47.976 29.496,49.246C29.712,52.5 27.315,55.455 24.05,55.962C22.094,56.265 19.808,55.381 18.456,53.798C18.015,53.282 17.899,53.207 17.547,53.207C16.968,53.207 15.935,52.916 15.317,52.58C14.65,52.217 13.794,51.321 13.437,50.612C13.287,50.315 12.787,48.607 12.325,46.818C11.4,43.228 11.308,42.452 11.677,41.31C11.941,40.49 12.648,39.481 13.301,38.991C13.847,38.581 13.851,38.572 14.045,37.585C14.153,37.039 14.356,36.333 14.498,36.016C15.045,34.794 16.227,33.52 17.337,32.953L17.758,32.739L17.758,30.701C17.758,27.557 18.041,25.602 18.822,23.346C21.093,16.788 26.568,11.981 33.436,10.516C35.02,10.178 38.151,10.096 39.872,10.347C41.447,10.577 42.597,10.865 43.943,11.367C50.984,13.994 55.858,20.359 56.594,27.886C56.655,28.513 56.705,29.95 56.705,31.08L56.705,33.136L57.018,33.321C57.595,33.661 58.766,35.014 59.113,35.741C59.491,36.535 59.786,37.565 59.786,38.097C59.786,38.393 59.866,38.508 60.256,38.777C61.704,39.773 62.513,41.376 62.399,43.021C62.33,44.01 60.784,49.9 60.389,50.681C59.665,52.108 57.877,53.201 56.258,53.205C55.834,53.206 55.72,53.255 55.523,53.522L55.29,53.838L56.685,53.891C58.351,53.954 59.317,54.243 60.443,55.013C61.699,55.871 62.352,56.955 62.52,58.461C62.645,59.575 62.961,60.18 63.664,60.651C64.404,61.147 65.007,61.238 67.555,61.238C68.893,61.238 69.898,61.284 70.024,61.351C70.291,61.494 70.568,62.021 70.568,62.386C70.568,62.539 70.424,62.827 70.247,63.024L69.926,63.383L67.469,63.405C65.716,63.421 64.816,63.383 64.328,63.275L64.328,63.276ZM17.285,51.914C17.254,51.808 16.526,49.098 15.668,45.89C14.809,42.683 14.083,39.985 14.053,39.894C14.014,39.776 13.847,39.893 13.461,40.311C12.873,40.948 12.477,41.945 12.477,42.79C12.477,43.253 14.003,49.286 14.299,49.996C14.541,50.574 14.95,51.066 15.507,51.45C16.368,52.042 17.405,52.313 17.285,51.914L17.285,51.914ZM57.887,51.733C58.556,51.39 59.275,50.649 59.551,50.016C59.67,49.744 60.118,48.154 60.547,46.484C61.423,43.068 61.491,42.434 61.093,41.37C60.806,40.602 59.778,39.47 59.703,39.839C59.615,40.274 56.567,51.615 56.469,51.873C56.37,52.133 56.377,52.136 56.866,52.069C57.14,52.032 57.599,51.88 57.887,51.733Z" style="fill:white;fill-rule:nonzero;"/>
    </g>
</svg>
