<svg width="24" height="24" viewBox="0 0 24 24" fill="none" xmlns="http://www.w3.org/2000/svg">
<path fill-rule="evenodd" clip-rule="evenodd" d="M12 24C18.6276 24 24 18.6276 24 12C24 5.37244 18.6276 0 12 0C5.37244 0 0 5.37244 0 12C0 18.6276 5.37244 24 12 24ZM12.1111 2.66666C6.89508 2.66666 2.66666 6.89508 2.66666 12.1111C2.66666 17.3271 6.89508 21.5555 12.1111 21.5555V19.1944C8.19909 19.1944 5.02777 16.0231 5.02777 12.1111C5.02777 8.19909 8.19909 5.02777 12.1111 5.02777C16.0231 5.02777 19.1944 8.19909 19.1944 12.1111H21.5555C21.5555 6.89508 17.3271 2.66666 12.1111 2.66666ZM6.44444 12.1111C6.44444 15.2407 8.98149 17.7778 12.1111 17.7778V15.7172C10.1195 15.7172 8.50504 14.1027 8.50504 12.1111C8.50504 10.1195 10.1195 8.50504 12.1111 8.50504C14.1027 8.50504 15.7172 10.1195 15.7172 12.1111H17.7778C17.7778 8.98149 15.2407 6.44444 12.1111 6.44444C8.98149 6.44444 6.44444 8.98149 6.44444 12.1111Z" fill="black"/>
</svg>
