<svg width="24" height="24" viewBox="0 0 24 24" fill="none" xmlns="http://www.w3.org/2000/svg">
<path fill-rule="evenodd" clip-rule="evenodd" d="M12.6442 9.64316C13.2022 9.3949 13.5912 8.83566 13.5912 8.18555C13.5912 7.30488 12.8773 6.59096 11.9967 6.59096C11.116 6.59096 10.4021 7.30488 10.4021 8.18555C10.4021 8.83712 10.7929 9.39742 11.3529 9.64483L4.62 23.4262L5.7662 23.9861L7.4602 20.5187L18.4313 23.5607L18.6593 24L19.7915 23.4123L12.6442 9.64316ZM15.6115 18.1284L18.0968 22.9164L8.11449 20.1486L15.6115 18.1284ZM10.1559 15.0009L15.0655 17.0765L13.2675 13.6129L10.1756 14.9607L10.1559 15.0009ZM12.0139 11.1978L13.0221 13.1401L10.5355 14.224L12.0139 11.1978ZM7.87898 19.6615L9.92224 15.4792L15.1687 17.6972L7.87898 19.6615Z" fill="black"/>
<path d="M20.1773 8.20002C20.1565 3.68815 16.509 0.03311 12 0.000244141V0.744405C16.098 0.777244 19.4124 4.09913 19.4331 8.20002H20.1773Z" fill="black"/>
<path d="M18.1575 8.20002C18.1576 8.1952 18.1576 8.19038 18.1576 8.18555C18.1576 4.78304 15.4015 2.02424 12 2.01983V2.76397C14.9905 2.76838 17.4134 5.19401 17.4134 8.18555C17.4134 8.19038 17.4134 8.1952 17.4134 8.20002H18.1575Z" fill="black"/>
<path d="M16.0314 8.20002C16.0314 8.1952 16.0314 8.19038 16.0314 8.18555C16.0314 5.95726 14.2273 4.15035 12 4.14595V4.89009C13.8163 4.89449 15.2873 6.36823 15.2873 8.18555C15.2873 8.19038 15.2873 8.1952 15.2873 8.20002H16.0314Z" fill="black"/>
</svg>
