<svg width="24" height="24" viewBox="0 0 24 24" fill="none" xmlns="http://www.w3.org/2000/svg">
<path d="M12 0C12.2976 0 12.5886 0.088289 12.8361 0.253709C13.0836 0.419128 13.2765 0.654248 13.3904 0.92933C13.492 1.17471 13.5267 1.44206 13.4918 1.70422V2.93993C13.5005 3.0054 13.5049 3.07221 13.5049 3.14007C13.5049 3.9715 12.8312 4.64551 12 4.64551C11.1688 4.64551 10.4951 3.9715 10.4951 3.14007V1.50544C10.4951 1.10618 10.6536 0.723254 10.9358 0.44093C11.2181 0.158605 11.6009 0 12 0Z" fill="black"/>
<path d="M7.51741 5.01786C7.26992 4.85244 6.97896 4.76415 6.68131 4.76415C6.28217 4.76415 5.89939 4.92276 5.61716 5.20508C5.33493 5.4874 5.17637 5.87032 5.17637 6.26959V11.6217H5.1767C5.18272 11.9084 5.2705 12.1876 5.43 12.4264C5.59536 12.674 5.8304 12.8669 6.10539 12.9809C6.38038 13.0948 6.68297 13.1246 6.9749 13.0665C7.26683 13.0085 7.53499 12.8651 7.74546 12.6545C7.95593 12.444 8.09926 12.1758 8.15733 11.8837C8.18975 11.7207 8.19478 11.5543 8.17307 11.3912V6.46837C8.20798 6.20622 8.1733 5.93886 8.07169 5.69348C7.95779 5.4184 7.76489 5.18328 7.51741 5.01786Z" fill="black"/>
<path d="M10.4951 7.63265V16.3542C10.4951 17.1856 11.1688 17.8596 12 17.8596C12.8312 17.8596 13.5049 17.1856 13.5049 16.3542C13.5049 16.2863 13.5005 16.2195 13.4918 16.154V7.83279C13.5005 7.76731 13.5049 7.7005 13.5049 7.63265C13.5049 6.80122 12.8312 6.12721 12 6.12721C11.1688 6.12721 10.4951 6.80122 10.4951 7.63265Z" fill="black"/>
<path d="M1.50494 9.67067C1.80259 9.67067 2.09356 9.75896 2.34105 9.92438C2.58853 10.0898 2.78142 10.3249 2.89533 10.6C2.9828 10.8112 3.02067 11.0388 3.00725 11.2652V12.7216C3.01481 12.8492 3.00615 12.9778 2.98097 13.1044C2.92291 13.3965 2.77957 13.6647 2.5691 13.8752C2.35863 14.0858 2.09047 14.2292 1.79854 14.2872C1.50661 14.3453 1.20402 14.3155 0.929024 14.2016C0.654032 14.0876 0.418991 13.8947 0.253629 13.6471C0.088267 13.3995 0 13.1085 0 12.8107C0 12.751 0.00355513 12.6915 0.0105447 12.6328V11.354C0.00354709 11.2952 0 11.2358 0 11.1761C0 10.7768 0.158557 10.3939 0.440788 10.1116C0.723019 9.82928 1.10581 9.67067 1.50494 9.67067Z" fill="black"/>
<path d="M20.9901 12.8107V11.1761C20.9901 10.7768 21.1487 10.3939 21.4309 10.1116C21.7131 9.82928 22.0959 9.67067 22.4951 9.67067C22.7927 9.67067 23.0837 9.75896 23.3312 9.92438C23.5786 10.0898 23.7715 10.3249 23.8854 10.6C23.9843 10.8389 24.0198 11.0986 23.9895 11.354V12.6328C24.0081 12.7892 24.0021 12.9483 23.9711 13.1044C23.913 13.3965 23.7697 13.6647 23.5592 13.8752C23.3487 14.0858 23.0806 14.2292 22.7887 14.2872C22.4967 14.3453 22.1941 14.3155 21.9191 14.2016C21.6442 14.0876 21.4091 13.8947 21.2437 13.6471C21.0784 13.3995 20.9901 13.1085 20.9901 12.8107Z" fill="black"/>
<path d="M6.68131 14.5772C6.97896 14.5772 7.26992 14.6655 7.51741 14.8309C7.76489 14.9963 7.95779 15.2314 8.07169 15.5065C8.1733 15.7519 8.20798 16.0193 8.17307 16.2814V17.5237C8.19478 17.6868 8.18975 17.8532 8.15733 18.0162C8.09926 18.3082 7.95593 18.5765 7.74546 18.787C7.53499 18.9976 7.26683 19.1409 6.9749 19.199C6.68297 19.2571 6.38038 19.2273 6.10539 19.1134C5.8304 18.9994 5.59536 18.8065 5.43 18.5589C5.26463 18.3113 5.17637 18.0203 5.17637 17.7225V16.0826C5.17637 15.6834 5.33493 15.3004 5.61716 15.0181C5.89939 14.7358 6.28217 14.5772 6.68131 14.5772Z" fill="black"/>
<path d="M15.8032 7.90422C15.8033 7.84531 15.8069 7.78676 15.8138 7.72884V6.44756C15.8067 6.3887 15.8032 6.32928 15.8032 6.26959C15.8032 5.87032 15.9618 5.4874 16.244 5.20508C16.5262 4.92276 16.909 4.76415 17.3081 4.76415C17.6058 4.76415 17.8968 4.85244 18.1442 5.01786C18.3917 5.18328 18.5846 5.4184 18.6985 5.69348C18.7944 5.92492 18.8307 6.17591 18.8052 6.42364V7.75277C18.8205 7.90177 18.8136 8.05303 18.784 8.20152C18.7257 8.49362 18.5821 8.76186 18.3714 8.97229C18.1606 9.18272 17.8922 9.3259 17.6001 9.38369C17.308 9.44148 17.0053 9.41128 16.7304 9.29694C16.4555 9.18259 16.2206 8.98922 16.0556 8.74131C15.8905 8.49339 15.8027 8.20208 15.8032 7.90422Z" fill="black"/>
<path d="M13.5049 20.8573C13.5049 20.9252 13.5005 20.992 13.4918 21.0574V22.2958C13.5135 22.4591 13.5084 22.6259 13.4758 22.7892C13.4175 23.0813 13.2739 23.3496 13.0632 23.56C12.8525 23.7704 12.5841 23.9136 12.292 23.9714C11.9999 24.0292 11.6972 23.999 11.4223 23.8847C11.1473 23.7703 10.9124 23.5769 10.7474 23.329C10.5824 23.0811 10.4945 22.7898 10.4951 22.4919L10.4951 20.8573C10.4951 20.0259 11.1688 19.3519 12 19.3519C12.8312 19.3519 13.5049 20.0259 13.5049 20.8573Z" fill="black"/>
<path d="M15.8138 17.5445V12.5853C15.8067 12.5264 15.8032 12.467 15.8032 12.4073C15.8032 12.0081 15.9618 11.6252 16.244 11.3428C16.5262 11.0605 16.909 10.9019 17.3081 10.9019C17.6058 10.9019 17.8968 10.9902 18.1442 11.1556C18.3917 11.321 18.5846 11.5561 18.6985 11.8312C18.7944 12.0627 18.8307 12.3137 18.8052 12.5614V17.5685C18.8205 17.7171 18.8136 17.8681 18.7842 18.0162C18.7261 18.3082 18.5828 18.5765 18.3723 18.787C18.1618 18.9976 17.8937 19.1409 17.6017 19.199C17.3098 19.2571 17.0072 19.2273 16.7322 19.1134C16.4572 18.9994 16.2222 18.8065 16.0568 18.5589C15.8915 18.3113 15.8032 18.0203 15.8032 17.7225C15.8032 17.6627 15.8068 17.6033 15.8138 17.5445Z" fill="black"/>
</svg>
