<svg width="24" height="24" viewBox="0 0 24 24" fill="none" xmlns="http://www.w3.org/2000/svg">
<path d="M5.80408 9.96734C5.80408 9.8204 5.87755 9.79591 6.02449 9.79591H6.85714C7.64082 9.79591 8.17959 10.3837 8.4 11.1184C8.57143 11.7306 8.57143 12.4408 8.35102 13.0286C8.17959 13.4449 7.9102 13.7633 7.49388 13.9347C7.24898 14.0326 7.00408 14.0816 6.75918 14.0816H6.04898C5.87755 14.0816 5.80408 14.0326 5.80408 13.8857V9.96734Z" fill="black"/>
<path fill-rule="evenodd" clip-rule="evenodd" d="M24 12C24 18.6274 18.6274 24 12 24C5.37258 24 0 18.6274 0 12C0 5.37258 5.37258 0 12 0C18.6274 0 24 5.37258 24 12ZM19.4449 15.0123C19.7143 14.0082 19.8857 13.0041 19.8857 12.1959C19.8857 11.2653 19.8367 10.5796 19.7143 9.89388C19.3469 8.08164 18.6122 6.41633 17.4367 4.94695C17.1918 4.65307 16.9469 4.38368 16.702 4.13878C16.5551 4.01633 16.4327 4.01633 16.2857 4.13878C16.0228 4.3725 15.7773 4.61494 15.544 4.84529C15.3862 5.0011 15.2339 5.15148 15.0857 5.2898C15.0367 5.33878 15.0122 5.38776 14.9878 5.43674C14.9633 5.51021 15.0122 5.58368 15.0612 5.65715C15.1347 5.75511 15.2327 5.85307 15.3306 5.95103C16.2122 6.93062 16.849 8.05715 17.2408 9.30613C17.6327 10.5306 17.7306 11.8041 17.5347 13.0776C17.4612 13.7878 17.2653 14.4735 17.0204 15.1592C16.8 15.7469 16.5306 16.3102 16.1878 16.849C15.8449 17.3878 15.4531 17.8776 15.0122 18.3184C14.8653 18.4408 14.8653 18.5878 15.0122 18.7102C15.1347 18.8082 15.2571 18.9306 15.3796 19.0531C15.6735 19.3225 15.9429 19.5918 16.2122 19.8612C16.3347 19.9837 16.4571 19.9837 16.5796 19.8857L16.7265 19.7388C17.5102 18.9306 18.1714 18.0245 18.6612 17.0204C18.9796 16.3592 19.249 15.7225 19.4449 15.0123ZM14.4245 15.2082C14.9143 14.1796 15.1837 13.102 15.1837 12C15.1837 11.3878 15.1102 10.8 14.9388 10.2123C14.6694 9.20817 14.2531 8.25307 13.5918 7.42041C13.4449 7.2245 13.2735 7.00409 13.0776 6.83266C12.9796 6.7347 12.8816 6.7347 12.7592 6.80817C12.7347 6.80817 12.7102 6.83266 12.6857 6.85715C12.4898 7.0408 12.2939 7.23056 12.098 7.42033C11.9021 7.61013 11.7061 7.80001 11.5102 7.98368C11.3878 8.13062 11.3633 8.25307 11.5102 8.40001C12.0735 9.01225 12.4898 9.69797 12.7102 10.4816C12.9306 11.1674 12.9796 11.8531 12.8816 12.5633C12.7592 13.4694 12.4408 14.302 11.902 15.0612L11.4612 15.5755C11.3633 15.698 11.3878 15.8204 11.4857 15.9184C11.902 16.3347 12.2939 16.7266 12.7102 17.1184C12.8327 17.2408 12.9551 17.2408 13.0776 17.1184L13.1265 17.0694C13.6653 16.5306 14.1061 15.8939 14.4245 15.2082ZM10.3102 11.7306C10.2857 11.3143 10.2122 10.898 10.0408 10.5061C9.77143 9.8204 9.30612 9.28163 8.66939 8.91428C8.13061 8.59591 7.51837 8.47346 6.90612 8.47346H4.60408C4.45714 8.47346 4.40816 8.52244 4.40816 8.69387V15.5265C4.40816 15.6245 4.45714 15.6735 4.57959 15.6735H6.68571C7.07755 15.6735 7.42041 15.6 7.76327 15.5265C8.86531 15.2816 9.64898 14.6449 10.0408 13.6163C10.2857 13.0041 10.3592 12.3673 10.3102 11.7306Z" fill="black"/>
</svg>
