<svg width="24" height="24" viewBox="0 0 24 24" fill="none" xmlns="http://www.w3.org/2000/svg">
<g clip-path="url(#clip0)">
<path d="M15.637 11.5893C15.9325 11.2925 16.1493 10.8725 16.24 10.421C16.2853 10.1961 16.2978 9.97012 16.2769 9.75613C16.2561 9.54214 16.2022 9.34433 16.1184 9.17406C16.0346 9.0038 15.9226 8.86443 15.7887 8.76396C15.6548 8.66349 15.5018 8.60391 15.3384 8.58863C15.1749 8.57335 15.0043 8.60268 14.8364 8.67493C14.6684 8.74718 14.5063 8.86093 14.3596 9.00965C14.2128 9.15836 14.0841 9.33911 13.981 9.54151C13.8779 9.74391 13.8023 9.96397 13.7587 10.189C13.6711 10.6408 13.7171 11.0854 13.8867 11.4257C14.0563 11.766 14.3356 11.9743 14.6636 12.0049C14.9916 12.0356 15.3416 11.8862 15.637 11.5893Z" fill="black"/>
<path fill-rule="evenodd" clip-rule="evenodd" d="M10.9199 0.0495037C11.1723 0.0216391 11.4238 0.00552496 11.6723 0.00151869C15.3126 -0.0571197 18.4473 2.3932 18.9522 5.76554L19.9096 5.66021L20.4393 10.4458L17.9805 10.717C17.9263 11.5141 17.7576 12.2583 17.4829 12.8812C17.0365 13.8936 16.3468 14.5027 15.5655 14.5746C15.4289 14.5872 15.2916 14.5832 15.1543 14.5631C15.1652 14.793 15.1726 15.0363 15.1798 15.2688C15.1902 15.6105 15.2 15.9292 15.219 16.1489C15.2626 16.6529 15.3563 17.0493 15.5649 17.3173C15.7736 17.5853 16.1109 17.9569 16.7859 18.0081C17.3382 18.0499 18.1026 17.865 19.1325 17.6158C19.3611 17.5605 19.6029 17.502 19.8583 17.4422C20.3059 17.3373 20.716 17.2122 21.0952 17.0965C21.754 16.8956 22.3198 16.7231 22.8281 16.7337C23.2286 16.742 23.6183 16.9741 23.8002 17.4093C23.982 17.8444 24.0288 18.793 23.9843 19.6973C23.9365 20.6699 23.4506 21.4326 22.741 21.9819C22.0315 22.5312 21.1022 22.8906 20.0972 23.1458C18.444 23.5654 16.5738 23.6975 15.142 23.7985C14.8329 23.8204 14.5442 23.8407 14.2826 23.8623H14.2781L14.2748 23.8634C10.2713 24.095 6.74688 24.0361 4.20843 23.6624C2.93916 23.4755 1.91714 23.2128 1.18732 22.8482C0.822394 22.666 0.5281 22.4576 0.31791 22.2033C0.10772 21.949 -0.0119984 21.6387 0.000953252 21.3131C0.00520258 21.2063 0.00927576 21.0939 0.0134865 20.9778C0.0489662 19.9991 0.094211 18.751 0.336879 18.2775C0.472608 18.0127 0.695767 17.8029 0.98083 17.7086C1.26587 17.6144 1.59355 17.6209 1.98635 17.6939C2.70128 17.8268 3.35445 17.9623 3.95028 18.086C5.38669 18.3841 6.4902 18.6132 7.32211 18.5686C8.49923 18.5056 9.1115 18.2327 9.38904 17.9293C9.66659 17.6259 9.68922 17.2509 9.581 16.7802C9.47278 16.3096 9.22145 15.3606 9.00512 14.9046C8.9019 14.687 8.82139 14.3976 8.75827 14.0471C8.66833 14.1388 8.57599 14.2207 8.48166 14.2922C8.15709 14.5381 7.81551 14.6559 7.47672 14.6389C7.13792 14.6218 6.80865 14.4702 6.50798 14.1929C6.20731 13.9155 5.94121 13.5178 5.72511 13.023C5.60371 12.7449 5.49944 12.4393 5.41397 12.1121L3.95815 12.2727L3.42844 7.4875L4.35424 7.38392C4.08253 3.74534 6.96418 0.486252 10.9199 0.0495037ZM13.3887 4.78072C13.7077 4.51091 14.0623 4.35465 14.434 4.32044C14.8209 4.28483 15.2186 4.38218 15.6044 4.60695C15.9903 4.83171 16.3567 5.17947 16.6828 5.63039C16.7686 5.74898 16.8511 5.87411 16.9302 6.00518L16.9284 5.98908L17.935 5.8779C17.4561 2.79224 14.4185 0.620863 11.0279 0.995164C7.63533 1.36968 5.16065 4.15367 5.37262 7.27178L5.45121 7.26307C5.60488 6.67275 5.81146 6.13834 6.06011 5.68835C6.32032 5.21745 6.62144 4.84834 6.94601 4.60242C7.27058 4.35649 7.61216 4.23864 7.95096 4.25569C8.28975 4.27273 8.61902 4.42434 8.9197 4.70173C9.03354 4.80675 9.14243 4.92903 9.24552 5.06729C9.30229 4.83607 9.36308 4.62865 9.4281 4.45455C9.62075 3.93872 9.84947 3.49922 10.139 3.16922C10.4286 2.83921 10.7974 2.61648 11.2171 2.60034C11.6251 2.58459 12.0018 2.74932 12.3146 3.02C12.6275 3.29076 12.888 3.66553 13.1203 4.11119C13.2146 4.2923 13.3039 4.52088 13.3887 4.78072ZM6.15208 9.36992C6.12041 9.98423 6.15021 10.5926 6.23737 11.1574C6.32478 11.7237 6.46584 12.2204 6.64155 12.6227C6.8191 13.0294 7.01415 13.2992 7.18605 13.4578C7.3516 13.6106 7.46747 13.6371 7.52697 13.6401C7.58591 13.6431 7.7015 13.6286 7.87775 13.4951C8.06134 13.356 8.279 13.1086 8.4923 12.7226C8.67346 12.3947 8.83577 11.995 8.96573 11.5376L8.96043 11.5439C8.69736 11.8574 8.3589 12.0274 8.01948 12.0165C7.68007 12.0056 7.3675 11.8147 7.15054 11.4858C6.93358 11.1569 6.82999 10.7169 6.86256 10.2627C6.87868 10.0377 6.92776 9.81601 7.00699 9.61024C7.08622 9.40447 7.19405 9.21864 7.32431 9.06338C7.45457 8.90812 7.60473 8.78646 7.76619 8.70536C7.92766 8.62425 8.09728 8.58529 8.26536 8.59068C8.43345 8.59608 8.59671 8.64573 8.74581 8.73681C8.89492 8.82789 9.02696 8.95861 9.13439 9.1215C9.19063 9.20677 9.23954 9.29998 9.28048 9.39956C9.29905 8.84368 9.27525 8.28757 9.1903 7.73714C9.1029 7.1708 8.96183 6.67416 8.78613 6.27179C8.60857 5.86519 8.41353 5.59529 8.24163 5.4367C8.07607 5.28397 7.9602 5.25739 7.90071 5.2544C7.84177 5.25143 7.72618 5.2659 7.54992 5.39944C7.36633 5.53855 7.14867 5.78597 6.93538 6.17198C6.72433 6.55391 6.53887 7.03338 6.40033 7.58802C6.26219 8.14108 6.17708 8.74351 6.15261 9.35821L6.15208 9.36992ZM16.9518 9.28601C17.0871 10.5118 16.9283 11.6604 16.5679 12.4777C16.2006 13.3108 15.7531 13.5531 15.4738 13.5788C15.1849 13.6054 14.6771 13.4394 14.1269 12.6786C13.5896 11.9357 13.1828 10.834 13.0477 9.60897C12.9815 9.00891 12.9846 8.41374 13.0537 7.85992C13.1231 7.30478 13.2557 6.81609 13.4315 6.41729C13.6083 6.0164 13.8144 5.73816 14.0116 5.56398C14.203 5.39492 14.3771 5.32986 14.5256 5.31619C14.6754 5.30241 14.8672 5.33477 15.1011 5.471C15.3405 5.61047 15.6087 5.85153 15.8725 6.21636C16.135 6.57928 16.3731 7.03735 16.563 7.57043C16.7524 8.10237 16.8856 8.68599 16.9518 9.28601Z" fill="black"/>
</g>
<defs>
<clipPath id="clip0">
<rect width="24" height="24" fill="white"/>
</clipPath>
</defs>
</svg>
