<svg width="24" height="24" viewBox="0 0 24 24" fill="none" xmlns="http://www.w3.org/2000/svg">
<path d="M18 5H23V8H18V5Z" fill="black"/>
<path d="M11 9H6V12H11V9Z" fill="black"/>
<path d="M6 13H11V16H6V13Z" fill="black"/>
<path d="M5 17H0V20H5V17Z" fill="black"/>
<path d="M11 17H6V20H11V17Z" fill="black"/>
<path d="M12 17H17V20H12V17Z" fill="black"/>
<path d="M23 17H18V20H23V17Z" fill="black"/>
<path d="M17 13H12V16H17V13Z" fill="black"/>
<path d="M18 13H23V16H18V13Z" fill="black"/>
<path d="M23 9H18V12H23V9Z" fill="black"/>
</svg>
