<svg width="24" height="24" viewBox="0 0 24 24" fill="none" xmlns="http://www.w3.org/2000/svg">
<path d="M12 24C14.3879 24 16.613 23.3025 18.4825 22.1001L16.6745 20.2921C15.2938 21.0721 13.6989 21.5172 12 21.5172C6.74377 21.5172 2.48276 17.2562 2.48276 12C2.48276 6.74377 6.74377 2.48276 12 2.48276C13.7672 2.48276 15.422 2.96444 16.8401 3.80367L18.6405 2.00327C16.7389 0.737576 14.4556 0 12 0C5.37258 0 0 5.37258 0 12C0 18.6274 5.37258 24 12 24Z" fill="black"/>
<path d="M24 12C24 15.3408 22.6348 18.3627 20.4319 20.5384L18.6763 18.7827C20.4299 17.0564 21.5172 14.6552 21.5172 12C21.5172 9.41129 20.4837 7.06398 18.8067 5.3482L20.5624 3.59253C22.6886 5.75768 24 8.72569 24 12Z" fill="black"/>
<path d="M16.5 12.7888C17.1814 12.3891 17.1814 11.404 16.5 11.0043L9.95818 7.16644C9.26855 6.76186 8.40024 7.25917 8.40024 8.05871L8.40023 15.7344C8.40023 16.5339 9.26855 17.0312 9.95818 16.6267L16.5 12.7888Z" fill="black"/>
</svg>
