<svg width="24" height="24" viewBox="0 0 24 24" fill="none" xmlns="http://www.w3.org/2000/svg">
<path fill-rule="evenodd" clip-rule="evenodd" d="M24 10.8286L16.9364 9.17241L16.176 7.34483L14.6903 7.45712C14.832 7.10812 14.9932 6.62399 15.0344 6.19203C15.1053 5.44955 15.0042 4.88205 14.8352 4.58701C14.687 4.32829 14.1126 3.37616 12.714 3.41387C12.3383 3.424 12.0206 3.477 11.7424 3.56632C11.2751 2.94152 10.5333 2.43627 9.5444 2.41385C8.4133 2.3882 7.68725 2.90271 7.36701 3.28806C7.19343 3.24834 7.00435 3.30609 6.88393 3.45292L6.35322 4.10005C6.26654 4.07972 6.17616 4.06897 6.08327 4.06897C5.43424 4.06897 4.9081 4.59388 4.9081 5.24138C4.9081 5.88888 5.43424 6.41379 6.08327 6.41379C6.7323 6.41379 7.25845 5.88888 7.25845 5.24138C7.25845 5.04182 7.20848 4.8539 7.12033 4.68941L7.63297 4.06432C7.75701 3.91307 7.77376 3.70927 7.69239 3.54473C7.9361 3.25585 8.54086 2.80499 9.53497 2.82754C10.3288 2.84553 10.9416 3.23402 11.3456 3.73015C11.2779 3.76493 11.2124 3.80226 11.149 3.84202C10.8043 4.05793 10.5248 4.34115 10.2456 4.64529C10.0607 4.5839 9.84895 4.63831 9.71819 4.79775L9.15223 5.48784C9.05532 5.46203 8.95346 5.44828 8.8484 5.44828C8.19937 5.44828 7.67322 5.97319 7.67322 6.62069C7.67322 7.26819 8.19937 7.7931 8.8484 7.7931C9.49743 7.7931 10.0236 7.26819 10.0236 6.62069C10.0236 6.43337 9.97954 6.25632 9.90124 6.09926L10.4672 5.40915C10.5808 5.27061 10.6044 5.08798 10.5451 4.93183C10.8228 4.62936 11.0704 4.37985 11.3695 4.19246C11.4375 4.14987 11.5086 4.11025 11.5838 4.07402C11.7491 4.35724 11.8533 4.65447 11.8921 4.92581C11.9145 5.08202 11.9367 5.22682 11.958 5.36549C12.0649 6.06084 12.148 6.60184 12.1037 7.6526L11.6135 7.68966L10.7149 13.4483L12.9615 13.6552L13.3417 10.5172L15.0699 11.931L14.1021 12.0345L13.1689 19L10.8185 19.1724L12.4085 18.5517L12.5813 16.6552L7.56953 17.6552L8.12255 19.9655L11.1296 20.5862H11.3716C11.3255 20.7586 11.2471 21.1655 11.3024 21.4138C11.3716 21.7241 12.1665 22.6897 12.4776 22.8966C12.7005 23.0448 13.051 23.6467 13.1962 23.9442C12.8119 23.9811 12.4223 24 12.0283 24C5.38525 24 0 18.6274 0 12C0 5.37258 5.38525 0 12.0283 0C18.2752 0 23.4098 4.75093 24 10.8286ZM7.25845 8.55172L10.8877 8.37931L10.4383 10.6552L6.91281 10.4828L7.25845 8.55172ZM10.3347 11.2759H6.77455L6.67086 13.6207L9.98901 13.3448L10.3347 11.2759ZM12.8924 14.2759L6.84368 14.4828L7.5004 16.7586L12.685 16.0345L12.8924 14.2759Z" fill="black"/>
<path d="M21.1445 19.8287L17.6968 18.3103L16.4871 19.8621L11.8209 20.4483C11.7748 20.6782 11.6896 21.1931 11.7172 21.4138C11.7408 21.6024 12.1845 22.0166 12.5511 22.359C12.7208 22.5174 12.874 22.6604 12.9615 22.7586C13.1507 22.971 13.4714 23.5685 13.6252 23.8952C16.6197 23.4989 19.2664 22.0035 21.1445 19.8287Z" fill="black"/>
<path d="M12.5201 7.62114L14.2244 7.49232C14.368 7.17342 14.5773 6.61624 14.6215 6.1528C14.6889 5.447 14.5826 4.98002 14.4751 4.79231C14.3468 4.56827 13.8842 3.79626 12.7252 3.82751C12.4356 3.83532 12.1903 3.87079 11.9764 3.92862C12.1503 4.24303 12.26 4.56919 12.3027 4.8673C12.3244 5.01893 12.3463 5.16092 12.3674 5.29805L12.3675 5.29909L12.3676 5.2998C12.474 5.99127 12.5614 6.55979 12.5201 7.62114Z" fill="black"/>
<path d="M6.84368 5.24138C6.84368 5.66035 6.50323 6 6.08327 6C5.66331 6 5.32286 5.66035 5.32286 5.24138C5.32286 4.8224 5.66331 4.48276 6.08327 4.48276C6.50323 4.48276 6.84368 4.8224 6.84368 5.24138Z" fill="black"/>
</svg>
