<svg width="24" height="24" viewBox="0 0 24 24" fill="none" xmlns="http://www.w3.org/2000/svg">
<path fill-rule="evenodd" clip-rule="evenodd" d="M12 24C18.6274 24 24 18.6274 24 12C24 5.37258 18.6274 0 12 0C5.37258 0 0 5.37258 0 12C0 18.6274 5.37258 24 12 24ZM13.6676 3.37567C13.7915 2.97119 14.2199 2.74373 14.6243 2.86763C17.7102 3.81284 20.0832 6.20187 21.1522 9.40884C21.286 9.81016 21.0691 10.2439 20.6677 10.3777C20.2664 10.5115 19.8327 10.2946 19.6989 9.89328C18.7764 7.12579 16.7579 5.12332 14.1757 4.33237C13.7712 4.20847 13.5437 3.78014 13.6676 3.37567ZM13.2467 5.68555C13.3922 5.28832 13.8321 5.08422 14.2293 5.22969C16.2605 5.9735 18.0038 7.75213 18.7683 9.79063C18.9168 10.1867 18.7161 10.6282 18.32 10.7768C17.9239 10.9253 17.4824 10.7246 17.3339 10.3285C16.7196 8.69042 15.2969 7.25203 13.7026 6.66818C13.3053 6.52272 13.1012 6.08278 13.2467 5.68555ZM12.8359 8.05468C13.0125 7.67028 13.4673 7.50184 13.8517 7.67846C14.9991 8.20563 15.7688 9.14995 16.2769 10.1097C16.4749 10.4836 16.3322 10.9471 15.9584 11.145C15.5845 11.343 15.121 11.2003 14.9231 10.8265C14.512 10.05 13.9541 9.41138 13.2121 9.07047C12.8277 8.89386 12.6593 8.43907 12.8359 8.05468ZM11.9541 5.58778C12.1959 6.47188 11.6752 7.38457 10.7911 7.62633C8.85423 8.15598 7.42979 9.93382 7.42979 12.0434C7.42979 14.5743 9.47734 16.6213 11.9973 16.6213C14.0341 16.6213 15.8907 15.2359 16.493 13.3148C16.7673 12.4402 17.6985 11.9535 18.5731 12.2278C19.4477 12.502 19.9344 13.4333 19.6602 14.3078C18.6285 17.5981 15.5003 19.9404 11.9973 19.9404C7.639 19.9404 4.11064 16.4022 4.11064 12.0434C4.11064 8.40313 6.56958 5.33973 9.91558 4.42473C10.7997 4.18297 11.7124 4.70368 11.9541 5.58778Z" fill="black"/>
</svg>
