<svg width="24" height="24" viewBox="0 0 24 24" fill="none" xmlns="http://www.w3.org/2000/svg">
<g clip-path="url(#clip0)">
<path d="M0.510139 0.00246284C6.71677 0.130242 12.5614 2.62783 16.9683 7.03425C21.374 11.4397 23.8716 17.2846 23.9999 23.4915C24.0028 23.6237 23.952 23.7512 23.8598 23.8456C23.7672 23.9402 23.6404 23.9932 23.5084 23.9932H19.5256C19.259 23.9932 19.0406 23.7809 19.0344 23.5143C18.7843 13.5385 10.4646 5.21856 0.487778 4.96791C0.221162 4.96103 0.00860596 4.74307 0.00860596 4.47645V0.493675C0.00860596 0.361719 0.0619292 0.235414 0.156289 0.142774C0.250158 0.0501343 0.377445 -0.00392612 0.510139 0.00246284Z" fill="black"/>
<path d="M0.516527 8.9421C0.382604 8.93891 0.254579 8.98732 0.158499 9.0802C0.0626648 9.17284 0.0088501 9.30038 0.0088501 9.43356V13.4186C0.0088501 13.681 0.215508 13.8972 0.477947 13.9095C5.72033 14.1486 9.85399 18.2823 10.0931 23.5247C10.1051 23.7868 10.3214 23.9935 10.5841 23.9935H14.5693C14.7025 23.9935 14.8303 23.9394 14.9226 23.8441C15.015 23.7488 15.0647 23.619 15.0607 23.4861C14.9337 19.6655 13.3682 16.0658 10.6529 13.3502C7.93706 10.6347 4.33737 9.06939 0.516527 8.9421Z" fill="black"/>
<path d="M3.10577 17.7896C1.39328 17.7896 0 19.1828 0 20.8953C0 22.6078 1.39328 24.0008 3.10577 24.0008C4.81826 24.0008 6.21154 22.6078 6.21154 20.8953C6.21154 19.1828 4.81801 17.7896 3.10577 17.7896Z" fill="black"/>
</g>
<defs>
<clipPath id="clip0">
<rect width="24" height="24" fill="white"/>
</clipPath>
</defs>
</svg>
