<svg width="24" height="24" viewBox="0 0 24 24" fill="none" xmlns="http://www.w3.org/2000/svg">
<g clip-path="url(#clip0)">
<path fill-rule="evenodd" clip-rule="evenodd" d="M12 24C5.34987 24 -2.47955e-05 18.6501 -2.47955e-05 12C-2.47955e-05 5.3499 5.34987 0 12 0C18.6501 0 24 5.3499 24 12C24 18.6501 18.6501 24 12 24ZM12 19.2501L12.9 18.3501L12 14.9001L11.1 18.3501L12 19.2501ZM10.8501 19.2L10.4001 20.9001L11.4501 19.8501L10.8501 19.2ZM13.1499 19.2L12.5499 19.8L13.5999 20.85L13.1499 19.2ZM14.0001 22.2999L12 20.3001L9.99987 22.2999C10.65 22.4001 11.3001 22.5 12 22.5C12.6999 22.5 13.35 22.4499 14.0001 22.2999ZM12 1.5C6.20008 1.5 1.49998 6.2001 1.49998 12C1.49998 16.5999 4.44988 20.4999 8.54998 21.9L10.8 13.5501C10.2999 13.2 9.99987 12.6 9.99987 11.9499C9.99987 10.8501 10.8999 9.9501 12 9.9501C13.1001 9.9501 14.0001 10.8501 14.0001 11.9499C14.0001 12.6 13.7001 13.1499 13.2 13.5501L15.45 21.9C19.5501 20.4999 22.5 16.5999 22.5 12C22.5 6.2001 17.7999 1.5 12 1.5ZM18.8499 17.1999C18.6 17.4999 18.15 17.6001 17.7999 17.3499C17.4501 17.1 17.4 16.65 17.6499 16.35C17.6499 16.35 18.9999 14.55 18.9999 12C18.9999 9.45 17.6499 7.65 17.6499 7.65C17.4 7.35 17.4501 6.9 17.7999 6.6501C18.15 6.3999 18.6 6.5001 18.8499 6.8001C18.9501 6.9 20.4999 8.9499 20.4999 12C20.4999 15.0501 18.9501 17.1 18.8499 17.1999ZM15.2001 15.2499C14.9001 14.9499 14.9499 14.4 15.2499 14.1C15.2499 14.1 15.9999 13.2999 15.9999 12C15.9999 10.7001 15.2499 9.9501 15.2499 9.9C14.9499 9.6 14.9499 9.0999 15.2001 8.7501C15.5001 8.4 15.9501 8.4 16.2501 8.7C16.2999 8.7501 17.4999 9.9999 17.4999 12C17.4999 14.0001 16.2999 15.2499 16.2501 15.3C15.9501 15.6 15.5001 15.5499 15.2001 15.2499ZM8.79987 15.2499C8.49988 15.5499 8.04987 15.6 7.74987 15.3C7.70007 15.2001 6.50008 14.0001 6.50008 12C6.50008 9.9999 7.70007 8.7999 7.74987 8.7C8.04987 8.4 8.54997 8.4 8.79987 8.7501C9.09987 9.0501 9.05008 9.6 8.75008 9.9C8.75008 9.9501 8.00008 10.7001 8.00008 12C8.00008 13.2999 8.75008 14.1 8.75008 14.1C9.05008 14.4 9.09987 14.9001 8.79987 15.2499ZM6.20008 17.3499C5.84998 17.6001 5.39998 17.4999 5.15008 17.1999C5.04988 17.1 3.50008 15.0501 3.50008 12C3.50008 8.9499 5.04988 6.9 5.15008 6.8001C5.39998 6.5001 5.84998 6.3999 6.20008 6.6501C6.54988 6.9 6.59998 7.35 6.35008 7.65C6.35008 7.65 5.00008 9.45 5.00008 12C5.00008 14.55 6.35008 16.35 6.35008 16.35C6.59998 16.65 6.50008 17.1 6.20008 17.3499Z" fill="black"/>
</g>
<defs>
<clipPath id="clip0">
<rect width="24" height="24" fill="white"/>
</clipPath>
</defs>
</svg>
