<svg width="24" height="24" viewBox="0 0 24 24" fill="none" xmlns="http://www.w3.org/2000/svg">
<g clip-path="url(#clip0)">
<path d="M12.2529 0.276978C5.62568 0.276978 0.252991 5.64953 0.252991 12.2768C0.252991 18.9043 5.62568 24.2764 12.2529 24.2764C18.8809 24.2764 24.253 18.9043 24.253 12.2768C24.253 5.64996 18.8809 0.277551 12.2528 0.277551L12.2529 0.276978ZM17.756 17.5841C17.5411 17.9366 17.0797 18.0484 16.7272 17.832C13.9097 16.111 10.3629 15.7213 6.18582 16.6756C5.78331 16.7673 5.38208 16.5151 5.29037 16.1125C5.19823 15.7098 5.44943 15.3086 5.85295 15.2169C10.424 14.1726 14.345 14.6222 17.5081 16.5553C17.8606 16.7716 17.9724 17.2316 17.756 17.5841ZM19.2248 14.3167C18.954 14.7569 18.3779 14.8959 17.938 14.6251C14.7124 12.6425 9.79556 12.0683 5.98034 13.2264C5.48554 13.3758 4.96294 13.097 4.81277 12.603C4.66375 12.1082 4.94274 11.5867 5.43668 11.4362C9.7947 10.1139 15.2125 10.7544 18.9167 13.0306C19.3566 13.3015 19.4956 13.8774 19.2248 14.3167ZM19.3509 10.9143C15.4834 8.61716 9.10244 8.40594 5.40988 9.52665C4.81693 9.70649 4.18987 9.37175 4.01018 8.7788C3.83049 8.18556 4.16494 7.55893 4.75832 7.37866C8.99712 6.09188 16.0436 6.34049 20.4964 8.98385C21.0309 9.30039 21.2057 9.98921 20.889 10.5218C20.5738 11.0552 19.8831 11.231 19.3515 10.9143H19.3509Z" fill="black"/>
</g>
<defs>
<clipPath id="clip0">
<rect width="24" height="24" fill="white"/>
</clipPath>
</defs>
</svg>
