<svg width="24" height="24" viewBox="0 0 24 24" fill="none" xmlns="http://www.w3.org/2000/svg">
<path fill-rule="evenodd" clip-rule="evenodd" d="M12 0C18.6274 0 24 5.37258 24 12V24H18.7317V21.9354C16.8121 23.2386 14.495 24 12 24C10.6701 24 9.3907 23.7837 8.19512 23.3842V16.4485C9.21836 17.3245 10.5474 17.8537 12 17.8537C14.832 17.8537 17.1942 15.8426 17.7366 13.1707H15.6214C15.1276 14.6993 13.6929 15.8049 12 15.8049C9.89862 15.8049 8.19512 14.1014 8.19512 12C8.19512 10.3071 9.30072 8.87243 10.8293 8.37864V6.26344C8.15738 6.80581 6.14634 9.16805 6.14634 12V22.4779C2.47898 20.4247 0 16.5018 0 12C0 5.37258 5.37258 0 12 0ZM21.0732 12C21.0732 6.98902 17.011 2.92683 12 2.92683V4.97561C15.8795 4.97561 19.0244 8.12054 19.0244 12H21.0732ZM17.8537 12C17.8537 8.76711 15.2329 6.14634 12 6.14634V8.19512C14.1014 8.19512 15.8049 9.89863 15.8049 12H17.8537ZM14.3415 12C14.3415 13.2932 13.2932 14.3415 12 14.3415C10.7068 14.3415 9.65854 13.2932 9.65854 12C9.65854 10.7068 10.7068 9.65854 12 9.65854C13.2932 9.65854 14.3415 10.7068 14.3415 12Z" fill="black"/>
</svg>
