<svg width="24" height="24" viewBox="0 0 24 24" fill="none" xmlns="http://www.w3.org/2000/svg">
<path d="M4.95609 4.46135C6.87334 2.54052 9.52412 1.35211 12.4525 1.35211C15.388 1.35211 18.0446 2.54633 19.9629 4.47544L20.919 3.51935C18.756 1.34556 15.7614 0 12.4525 0C9.15075 0 6.16193 1.33974 4 3.50526L4.95609 4.46135Z" fill="black"/>
<path d="M18.5288 5.90958C16.9775 4.34749 14.8279 3.38028 12.4525 3.38028C10.0842 3.38028 7.94044 4.34167 6.39022 5.89548L7.34631 6.85157C8.65185 5.54245 10.4576 4.73239 12.4525 4.73239C14.4546 4.73239 16.2661 5.54827 17.5727 6.86568L18.5288 5.90958Z" fill="black"/>
<path d="M16.1385 8.29983C15.199 7.34944 13.8945 6.76056 12.4525 6.76056C11.0176 6.76056 9.71895 7.34361 8.78045 8.2857L9.73654 9.24179C10.4304 8.54438 11.391 8.11268 12.4525 8.11268C13.5211 8.11268 14.4876 8.55022 15.1824 9.25593L16.1385 8.29983Z" fill="black"/>
<path d="M14.8187 11.9437C14.8187 13.2505 13.7593 14.3099 12.4525 14.3099C11.1457 14.3099 10.0863 13.2505 10.0863 11.9437C10.0863 10.6368 11.1457 9.57747 12.4525 9.57747C13.7593 9.57747 14.8187 10.6368 14.8187 11.9437Z" fill="black"/>
<path fill-rule="evenodd" clip-rule="evenodd" d="M6.2553 23.9489V24H18.6497V23.9489C15.5122 22.4295 13.3292 19.2486 13.2438 15.5493H11.6611C11.5757 19.2486 9.39276 22.4295 6.2553 23.9489ZM11.7764 19.338C11.7764 19.1513 11.9278 19 12.1145 19H12.7905C12.9772 19 13.1285 19.1513 13.1285 19.338C13.1285 19.5247 12.9772 19.6761 12.7905 19.6761H12.1145C11.9278 19.6761 11.7764 19.5247 11.7764 19.338ZM11.4384 20.5775C11.2517 20.5775 11.1004 20.7288 11.1004 20.9155C11.1004 21.1022 11.2517 21.2535 11.4384 21.2535H13.4666C13.6533 21.2535 13.8046 21.1022 13.8046 20.9155C13.8046 20.7288 13.6533 20.5775 13.4666 20.5775H11.4384ZM10.4243 22.493C10.4243 22.3063 10.5757 22.1549 10.7623 22.1549H14.1426C14.3293 22.1549 14.4806 22.3063 14.4806 22.493C14.4806 22.6796 14.3293 22.831 14.1426 22.831H10.7623C10.5756 22.831 10.4243 22.6796 10.4243 22.493Z" fill="black"/>
</svg>
