<svg width="24" height="24" viewBox="0 0 24 24" fill="none" xmlns="http://www.w3.org/2000/svg">
<g clip-path="url(#clip0)">
<path fill-rule="evenodd" clip-rule="evenodd" d="M0 4C0 1.79086 1.79086 0 4 0H20C22.2091 0 24 1.79086 24 4V20C24 22.2091 22.2091 24 20 24H4C1.79086 24 0 22.2091 0 20V4ZM20.741 7.24511C20.4192 5.20788 18.8158 3.59679 16.7824 3.26345L16 2.13333L15.4511 3.23104C15.3617 3.24122 15.2729 3.25387 15.185 3.26891L14.1333 1.86667L13.9837 3.06401C13.9891 3.06488 13.9945 3.06576 14 3.06666C14.5479 3.15699 15.2699 3.81314 15.5147 4.0491C15.6714 4.01691 15.8337 4 16 4C17.3255 4 18.4 5.07452 18.4 6.4C18.4 7.72548 17.3255 8.8 16 8.8C14.6745 8.8 13.6 7.72548 13.6 6.4C13.6 5.7324 13.8726 5.12847 14.3125 4.69342C14.1513 4.51122 13.7824 4.15704 13.3333 4.13333C13.2488 4.12887 13.1646 4.14934 13.0813 4.18904C12.9096 4.32075 12.747 4.46381 12.5947 4.61709C12.4016 4.85426 12.2237 5.14047 12.0722 5.3841C11.9002 5.66081 11.7623 5.8826 11.6752 5.91521C11.3707 6.5457 11.2 7.25292 11.2 8C11.2 8.18395 11.2103 8.36548 11.2305 8.54405C7.94151 8.73529 5.33333 11.4631 5.33333 14.8C5.33333 15.6711 5.51106 16.5006 5.83222 17.2544C5.29609 16.8413 4.65411 16.1192 4.39999 14.9333C3.99999 13.0667 3.91047 11.6054 3.99999 9.46667C4.02902 8.77313 4.13226 8.12885 4.22657 7.54024C4.31742 6.97326 4.39999 6.45793 4.39999 6.00001C4.39999 5.77909 4.21869 5.63125 3.99999 5.60001C3.74226 5.56319 3.52629 5.74658 3.46666 6.00001C2.93333 8.26665 2.93333 9.81056 2.93333 12.2667C2.93332 15.2 3.20001 17.8667 4.53333 19.6C5.55897 20.9333 6.68045 21.1982 8.26666 21.2C8.85008 21.2007 9.65185 20.9858 10.0391 20.8707C10.5381 20.9986 11.0611 21.0667 11.6 21.0667C13.1755 21.0667 14.6152 20.4853 15.7163 19.5253C16.0003 19.971 16.499 20.2667 17.0667 20.2667C17.9503 20.2667 18.6667 19.5503 18.6667 18.6667C18.6667 17.9073 18.1377 17.2715 17.4281 17.1077C17.7111 16.3935 17.8667 15.6149 17.8667 14.8C17.8667 14.016 17.7227 13.2657 17.4598 12.574C18.9405 12.1018 20.1091 10.9306 20.5776 9.44834C21.126 9.73636 21.6 10.4 21.6 10.4C21.6 10.4 21.2815 9.44462 20.7393 8.76519C20.7474 8.71514 20.7546 8.66482 20.7611 8.61426C21.3223 8.85841 22.1333 9.46667 22.1333 9.46667C22.1333 9.46667 21.7933 8.67336 20.7999 8.0271L20.8 8C20.8 7.96355 20.7996 7.92719 20.7988 7.89093C21.5968 8.02476 22.6667 8.66667 22.6667 8.66667C22.6667 8.66667 22.0631 7.58018 20.741 7.24511Z" fill="black"/>
</g>
<defs>
<clipPath id="clip0">
<rect width="24" height="24" fill="white"/>
</clipPath>
</defs>
</svg>
