<svg width="24" height="24" viewBox="0 0 24 24" fill="none" xmlns="http://www.w3.org/2000/svg">
<path d="M14.1596 14.3977C13.6939 13.9064 12.876 13.5914 11.9104 13.5914C10.9448 13.5914 10.1269 13.9064 9.66118 14.3977C9.41822 14.6541 9.28971 14.9169 9.24926 15.2913C9.17083 16.0164 9.21485 16.6407 9.29983 17.6388C9.38073 18.5899 9.5344 19.8582 9.73493 21.1499C9.87762 22.0692 9.99355 22.5653 10.0991 22.9206C10.2703 23.4965 10.91 24 11.9104 24C12.9107 24 13.5504 23.4963 13.7216 22.9206C13.8272 22.5653 13.9431 22.0692 14.0858 21.1499C14.2863 19.8582 14.44 18.5899 14.5209 17.6388C14.6059 16.6405 14.6499 16.0163 14.5715 15.2913C14.531 14.917 14.4025 14.6541 14.1596 14.3977ZM9.37309 10.0229C9.37309 11.4255 10.5102 12.5626 11.9128 12.5626C13.3155 12.5626 14.4526 11.4255 14.4526 10.0229C14.4526 8.62016 13.3155 7.48308 11.9128 7.48308C10.5102 7.48308 9.37309 8.62016 9.37309 10.0229ZM11.8813 4.54696e-05C5.94149 0.0169414 1.07436 4.83573 1.00086 10.7752C0.941164 15.5866 4.01252 19.7023 8.30124 21.2108C8.40533 21.2474 8.51102 21.161 8.49462 21.0518C8.43838 20.6783 8.38535 20.3029 8.33664 19.9338C8.31937 19.8033 8.23625 19.6908 8.11576 19.6381C4.72597 18.1572 2.35894 14.7576 2.39693 10.8196C2.44675 5.65166 6.66678 1.43854 11.8347 1.39673C17.1179 1.35406 21.4296 5.63946 21.4296 10.913C21.4296 14.8115 19.0729 18.1694 15.7095 19.6385C15.5891 19.6912 15.5064 19.804 15.4893 19.9344C15.4406 20.3034 15.3875 20.6787 15.3314 21.0518C15.3149 21.161 15.4206 21.2474 15.5247 21.2109C19.7725 19.7168 22.8259 15.6651 22.8259 10.9131C22.8257 4.88494 17.9132 -0.0172204 11.8813 4.54696e-05ZM11.6841 5.00654C15.0513 4.87618 17.8321 7.57755 17.8321 10.9163C17.8321 12.6143 17.1128 14.1472 15.963 15.2268C15.8654 15.3183 15.813 15.4483 15.8205 15.5819C15.8435 15.988 15.8351 16.3827 15.8081 16.8284C15.8008 16.9471 15.934 17.023 16.0323 16.956C17.9604 15.6384 19.2286 13.4228 19.2286 10.9163C19.2286 6.78924 15.7909 3.44989 11.6287 3.61121C7.7607 3.76117 4.6574 6.9503 4.60782 10.8211C4.57526 13.3668 5.85121 15.6221 7.80411 16.9563C7.90215 17.0232 8.03498 16.9473 8.0277 16.8286C8.00057 16.3827 7.99231 15.988 8.01512 15.5819C8.02264 15.4485 7.97035 15.3185 7.87305 15.2271C6.68738 14.1139 5.95925 12.5187 6.00562 10.7576C6.08726 7.65833 8.58601 5.12653 11.6841 5.00654Z" fill="black"/>
</svg>
