<svg width="24" height="24" viewBox="0 0 24 24" fill="none" xmlns="http://www.w3.org/2000/svg">
<g clip-path="url(#clip0)">
<path d="M6.88598 17.4256C5.01923 15.7789 4.0207 14.1121 3.51888 12.7663C2.71073 10.9053 2.30195 9.18506 2.1214 7.70035C1.90031 5.94152 2.06514 4.46023 2.25363 3.32652C2.3547 2.71869 2.58348 2.11235 2.86819 1.55273C2.0331 2.1078 1.15225 3.01721 0.798735 3.82091C0.592802 4.26862 0.416275 4.76857 0.26386 5.37362C-0.0187082 6.4934 -0.0919617 7.99044 0.130688 9.75048C0.312516 11.2362 0.724185 12.9577 1.53804 14.82C2.04339 16.1667 3.04897 17.8347 4.9289 19.4824C5.14968 19.6461 5.37019 19.8008 5.5898 19.9466C7.35581 21.1191 8.94112 21.6448 10.1757 21.8476C12.2001 22.2996 14.0222 22.3905 15.5726 22.2963C17.4153 22.1908 18.9433 21.8347 20.0461 21.3303C20.5103 21.0781 21.1181 20.6952 21.4524 20.3929C21.9045 19.984 22.3159 19.5999 22.6698 19.2384C22.5161 19.3197 22.3513 19.3952 22.1738 19.4634C20.9015 19.9523 19.3717 20.0785 17.9849 20.1929L17.9828 20.1931C17.8042 20.2079 17.628 20.2224 17.4551 20.2375C15.9156 20.3316 14.1062 20.2408 12.0961 19.7891C10.8701 19.5864 9.29589 19.0611 7.54225 17.8894C7.32417 17.7437 7.10522 17.5891 6.88598 17.4256Z" fill="black"/>
<path d="M23.9518 17.4058C23.9525 17.4007 23.9532 17.3956 23.9539 17.3907C23.9596 17.3681 23.9646 17.3457 23.9691 17.3235L23.9641 17.3214C23.9749 17.2497 23.9827 17.2055 23.9882 17.1782C23.9965 17.1373 23.9996 17.1347 24 17.1345C23.9997 17.1343 23.9969 17.1311 23.9944 17.0896C23.9919 17.0474 23.9895 16.9659 23.9899 16.8081C23.9767 16.7035 23.9541 16.5976 23.9224 16.4921C23.8594 16.2861 23.7602 16.0774 23.6258 15.8694C23.3691 15.4717 22.985 15.072 22.4861 14.6769C21.5686 13.9505 20.3001 13.2589 18.7881 12.5767C17.9459 12.196 17.173 11.8803 16.3759 11.5546C15.8513 11.3404 15.3163 11.1218 14.7441 10.8776C14.3281 10.6747 13.9527 10.5125 13.6391 10.3771C13.2218 10.1968 12.9142 10.0639 12.7666 9.9454C12.7324 9.918 12.7056 9.89077 12.6863 9.8632C12.5285 9.83246 12.2985 9.53312 11.9494 9.0786C11.7769 8.85399 11.5752 8.59149 11.3388 8.30478C11.0059 7.8638 10.5303 7.19268 10.0681 6.54044C9.68336 5.99757 9.30791 5.46777 9.03169 5.09462C7.16238 2.1487 5.25717 0.641505 3.89049 1.07262L3.88663 1.06695C3.84209 1.07726 3.79631 1.0899 3.74944 1.10475C3.3026 1.81026 2.92084 2.62558 2.78936 3.41634C2.60543 4.5226 2.44832 5.94599 2.66026 7.63204L2.66053 7.63423C2.83519 9.07043 3.23109 10.7391 4.01674 12.5483C4.02058 12.5571 4.02417 12.5661 4.02754 12.5751C4.49603 13.8315 5.43801 15.4177 7.22775 17.0011C7.43354 17.1541 7.63885 17.2989 7.84313 17.4354C9.53279 18.5642 11.0345 19.0609 12.1843 19.251C12.1945 19.2527 12.2046 19.2546 12.2147 19.2569C14.1687 19.6959 15.9243 19.784 17.4151 19.6935C17.5888 19.6784 17.7639 19.6638 17.9397 19.6492L17.9411 19.6491C19.3396 19.533 20.7854 19.4129 21.9797 18.954C22.9297 18.589 23.4609 17.9941 23.9518 17.4058Z" fill="black"/>
</g>
<defs>
<clipPath id="clip0">
<rect width="24" height="24" fill="white"/>
</clipPath>
</defs>
</svg>
