<svg width="24" height="24" viewBox="0 0 24 24" fill="none" xmlns="http://www.w3.org/2000/svg">
<path d="M11.9143 12.5143C12.5297 12.5143 13.0286 12.0154 13.0286 11.4C13.0286 10.7846 12.5297 10.2857 11.9143 10.2857C11.2989 10.2857 10.8 10.7846 10.8 11.4C10.8 12.0154 11.2989 12.5143 11.9143 12.5143Z" fill="black"/>
<path fill-rule="evenodd" clip-rule="evenodd" d="M22.6286 12.6857C22.6286 18.9344 17.563 24 11.3143 24C5.06558 24 0 18.9344 0 12.6857C0 6.437 5.06558 1.37143 11.3143 1.37143C11.5424 1.37143 11.7711 1.37895 12 1.39377V0C18.6 0 24 6.08571 24 12H22.6081C22.6217 12.2268 22.6286 12.4555 22.6286 12.6857ZM14.1943 19.4571C15.5143 18.8914 16.2857 17.7257 16.2857 16.2343C16.2857 15.12 15.6 13.9543 14.6743 13.4571C14.0914 13.1314 14.0914 13.1314 14.3486 12.6343C14.9314 11.4857 14.5543 9.97713 13.5086 9.22286C12.9771 8.84571 12.8057 8.76 9.77143 8.70857L6.51429 8.72571V19.7143H10.0286C12.8229 19.7143 13.68 19.6628 14.1943 19.4571ZM17.7429 12.7371C18.4114 10.1143 16.9886 7.23428 14.4343 6.03428C13.5429 5.60571 13.3543 5.51999 11.1429 5.46857H8.57143V7.23428H10.7657C13.3714 7.33714 14.1086 7.57713 15.0857 8.70857C15.8571 9.58285 16.1657 10.4571 16.0971 11.6571C16.0914 11.7782 16.0805 11.8842 16.0707 11.9794C16.0481 12.1984 16.0315 12.3598 16.0971 12.5143C16.1471 12.6319 16.2585 12.7456 16.3878 12.8775C16.4539 12.9449 16.5246 13.0172 16.5943 13.0971C16.9029 13.44 17.1429 13.7143 17.2286 13.8857C17.3143 14.0571 17.4857 13.7143 17.7429 12.7371Z" fill="black"/>
</svg>
